<svg width="140" height="35" viewBox="0 0 140 35" fill="none" xmlns="http://www.w3.org/2000/svg">
<path d="M5.27778 14.7549L14.0741 0L17.2407 5.4902L11.963 14.7549L16.537 22.6471L13.0185 28.1373L5.27778 14.7549Z" fill="white"/>
<path d="M17.9444 6.86275L14.7778 12.3529L15.8333 13.7255H22.1667L17.9444 6.86275Z" fill="white"/>
<path d="M16.1852 20.2451L13.0185 14.7549H29.2037L38 29.5098H31.6667L26.037 20.2451H16.1852Z" fill="white"/>
<path d="M24.9815 21.2745H19L13.7222 29.5098H3.16667L0 34.6569L17.2407 35L24.9815 21.2745Z" fill="white"/>
<path d="M27.0926 24.0196H24.6296L21.463 29.5098H30.2593L27.0926 24.0196Z" fill="white"/>
<path d="M11.2593 26.7647L8.09259 21.6176L3.51852 28.1373H10.2037L11.2593 26.7647Z" fill="white"/>
<path d="M51.2584 19.51C51.2584 20.05 51.1334 20.52 50.8834 20.92C50.6434 21.31 50.2634 21.615 49.7434 21.835C49.2234 22.045 48.5634 22.15 47.7634 22.15C47.1834 22.15 46.6734 22.115 46.2334 22.045C45.8034 21.975 45.3684 21.85 44.9284 21.67V19.63C45.4084 19.84 45.9084 20.005 46.4284 20.125C46.9584 20.245 47.3984 20.305 47.7484 20.305C48.1284 20.305 48.4034 20.255 48.5734 20.155C48.7434 20.055 48.8284 19.915 48.8284 19.735C48.8284 19.605 48.7834 19.49 48.6934 19.39C48.6134 19.29 48.4434 19.175 48.1834 19.045C47.9334 18.915 47.5584 18.75 47.0584 18.55C46.5684 18.34 46.1634 18.125 45.8434 17.905C45.5334 17.685 45.2984 17.42 45.1384 17.11C44.9884 16.8 44.9134 16.42 44.9134 15.97C44.9134 15.19 45.2134 14.605 45.8134 14.215C46.4234 13.815 47.2284 13.615 48.2284 13.615C48.7584 13.615 49.2584 13.67 49.7284 13.78C50.1984 13.89 50.6834 14.06 51.1834 14.29L50.4634 16C50.1934 15.88 49.9234 15.775 49.6534 15.685C49.3934 15.595 49.1434 15.525 48.9034 15.475C48.6634 15.425 48.4384 15.4 48.2284 15.4C47.9484 15.4 47.7334 15.44 47.5834 15.52C47.4334 15.59 47.3584 15.7 47.3584 15.85C47.3584 15.96 47.3984 16.065 47.4784 16.165C47.5684 16.255 47.7334 16.355 47.9734 16.465C48.2234 16.575 48.5834 16.73 49.0534 16.93C49.5234 17.12 49.9234 17.32 50.2534 17.53C50.5834 17.74 50.8334 18 51.0034 18.31C51.1734 18.62 51.2584 19.02 51.2584 19.51ZM56.6563 20.14C56.9163 20.14 57.1563 20.115 57.3763 20.065C57.5963 20.015 57.8213 19.95 58.0513 19.87V21.73C57.7813 21.85 57.4713 21.95 57.1213 22.03C56.7713 22.11 56.3563 22.15 55.8763 22.15C55.3663 22.15 54.9113 22.07 54.5113 21.91C54.1213 21.74 53.8113 21.455 53.5813 21.055C53.3613 20.645 53.2513 20.08 53.2513 19.36V15.655H52.2013V14.605L53.4613 13.795L54.1513 12.055H55.7713V13.765H57.9613V15.655H55.7713V19.27C55.7713 19.56 55.8513 19.78 56.0113 19.93C56.1713 20.07 56.3863 20.14 56.6563 20.14ZM63.3056 13.6C64.3756 13.6 65.2056 13.85 65.7956 14.35C66.3856 14.84 66.6806 15.57 66.6806 16.54V22H64.9256L64.4306 20.89H64.3706C64.1406 21.18 63.9006 21.42 63.6506 21.61C63.4106 21.8 63.1306 21.935 62.8106 22.015C62.5006 22.105 62.1156 22.15 61.6556 22.15C61.1756 22.15 60.7406 22.055 60.3506 21.865C59.9706 21.675 59.6706 21.385 59.4506 20.995C59.2306 20.605 59.1206 20.11 59.1206 19.51C59.1206 18.63 59.4256 17.98 60.0356 17.56C60.6556 17.14 61.5606 16.905 62.7506 16.855L64.1606 16.81V16.57C64.1606 16.17 64.0556 15.88 63.8456 15.7C63.6456 15.52 63.3656 15.43 63.0056 15.43C62.6456 15.43 62.2706 15.49 61.8806 15.61C61.4906 15.72 61.0956 15.86 60.6956 16.03L59.9306 14.35C60.3806 14.11 60.8906 13.925 61.4606 13.795C62.0306 13.665 62.6456 13.6 63.3056 13.6ZM63.3956 18.28C62.7656 18.3 62.3256 18.415 62.0756 18.625C61.8256 18.825 61.7006 19.1 61.7006 19.45C61.7006 19.76 61.7906 19.985 61.9706 20.125C62.1506 20.265 62.3806 20.335 62.6606 20.335C63.0806 20.335 63.4356 20.21 63.7256 19.96C64.0156 19.7 64.1606 19.35 64.1606 18.91V18.25L63.3956 18.28ZM73.7199 13.615C74.5899 13.615 75.2899 13.855 75.8199 14.335C76.3599 14.805 76.6299 15.57 76.6299 16.63V22H74.1099V17.335C74.1099 16.765 74.0149 16.335 73.8249 16.045C73.6349 15.755 73.3349 15.61 72.9249 15.61C72.3149 15.61 71.8999 15.84 71.6799 16.3C71.4599 16.75 71.3499 17.4 71.3499 18.25V22H68.8149V13.765H70.7349L71.0799 14.83H71.1999C71.3799 14.56 71.5949 14.335 71.8449 14.155C72.0949 13.975 72.3799 13.84 72.6999 13.75C73.0199 13.66 73.3599 13.615 73.7199 13.615ZM80.8497 11.455C80.7597 11.815 80.6447 12.22 80.5047 12.67C80.3647 13.12 80.2147 13.57 80.0547 14.02C79.8947 14.47 79.7297 14.88 79.5597 15.25H77.7597C77.8297 14.93 77.8997 14.6 77.9697 14.26C78.0397 13.91 78.1047 13.56 78.1647 13.21C78.2347 12.86 78.2947 12.525 78.3447 12.205C78.4047 11.875 78.4497 11.57 78.4797 11.29H80.7447L80.8497 11.455ZM87.5719 19.51C87.5719 20.05 87.4469 20.52 87.1969 20.92C86.9569 21.31 86.5769 21.615 86.0569 21.835C85.5369 22.045 84.8769 22.15 84.0769 22.15C83.4969 22.15 82.9869 22.115 82.5469 22.045C82.1169 21.975 81.6819 21.85 81.2419 21.67V19.63C81.7219 19.84 82.2219 20.005 82.7419 20.125C83.2719 20.245 83.7119 20.305 84.0619 20.305C84.4419 20.305 84.7169 20.255 84.8869 20.155C85.0569 20.055 85.1419 19.915 85.1419 19.735C85.1419 19.605 85.0969 19.49 85.0069 19.39C84.9269 19.29 84.7569 19.175 84.4969 19.045C84.2469 18.915 83.8719 18.75 83.3719 18.55C82.8819 18.34 82.4769 18.125 82.1569 17.905C81.8469 17.685 81.6119 17.42 81.4519 17.11C81.3019 16.8 81.2269 16.42 81.2269 15.97C81.2269 15.19 81.5269 14.605 82.1269 14.215C82.7369 13.815 83.5419 13.615 84.5419 13.615C85.0719 13.615 85.5719 13.67 86.0419 13.78C86.5119 13.89 86.9969 14.06 87.4969 14.29L86.7769 16C86.5069 15.88 86.2369 15.775 85.9669 15.685C85.7069 15.595 85.4569 15.525 85.2169 15.475C84.9769 15.425 84.7519 15.4 84.5419 15.4C84.2619 15.4 84.0469 15.44 83.8969 15.52C83.7469 15.59 83.6719 15.7 83.6719 15.85C83.6719 15.96 83.7119 16.065 83.7919 16.165C83.8819 16.255 84.0469 16.355 84.2869 16.465C84.5369 16.575 84.8969 16.73 85.3669 16.93C85.8369 17.12 86.2369 17.32 86.5669 17.53C86.8969 17.74 87.1469 18 87.3169 18.31C87.4869 18.62 87.5719 19.02 87.5719 19.51ZM96.8213 13.6C97.8913 13.6 98.7213 13.85 99.3113 14.35C99.9013 14.84 100.196 15.57 100.196 16.54V22H98.4413L97.9463 20.89H97.8863C97.6563 21.18 97.4163 21.42 97.1663 21.61C96.9263 21.8 96.6463 21.935 96.3263 22.015C96.0163 22.105 95.6313 22.15 95.1713 22.15C94.6913 22.15 94.2563 22.055 93.8663 21.865C93.4863 21.675 93.1863 21.385 92.9663 20.995C92.7463 20.605 92.6363 20.11 92.6363 19.51C92.6363 18.63 92.9413 17.98 93.5513 17.56C94.1713 17.14 95.0763 16.905 96.2663 16.855L97.6763 16.81V16.57C97.6763 16.17 97.5713 15.88 97.3613 15.7C97.1613 15.52 96.8813 15.43 96.5213 15.43C96.1613 15.43 95.7863 15.49 95.3963 15.61C95.0063 15.72 94.6113 15.86 94.2113 16.03L93.4463 14.35C93.8963 14.11 94.4063 13.925 94.9763 13.795C95.5463 13.665 96.1613 13.6 96.8213 13.6ZM96.9113 18.28C96.2813 18.3 95.8413 18.415 95.5913 18.625C95.3413 18.825 95.2163 19.1 95.2163 19.45C95.2163 19.76 95.3063 19.985 95.4863 20.125C95.6663 20.265 95.8963 20.335 96.1763 20.335C96.5963 20.335 96.9513 20.21 97.2413 19.96C97.5313 19.7 97.6763 19.35 97.6763 18.91V18.25L96.9113 18.28ZM108.255 19.51C108.255 20.05 108.13 20.52 107.88 20.92C107.64 21.31 107.26 21.615 106.74 21.835C106.22 22.045 105.56 22.15 104.76 22.15C104.18 22.15 103.67 22.115 103.23 22.045C102.8 21.975 102.365 21.85 101.925 21.67V19.63C102.405 19.84 102.905 20.005 103.425 20.125C103.955 20.245 104.395 20.305 104.745 20.305C105.125 20.305 105.4 20.255 105.57 20.155C105.74 20.055 105.825 19.915 105.825 19.735C105.825 19.605 105.78 19.49 105.69 19.39C105.61 19.29 105.44 19.175 105.18 19.045C104.93 18.915 104.555 18.75 104.055 18.55C103.565 18.34 103.16 18.125 102.84 17.905C102.53 17.685 102.295 17.42 102.135 17.11C101.985 16.8 101.91 16.42 101.91 15.97C101.91 15.19 102.21 14.605 102.81 14.215C103.42 13.815 104.225 13.615 105.225 13.615C105.755 13.615 106.255 13.67 106.725 13.78C107.195 13.89 107.68 14.06 108.18 14.29L107.46 16C107.19 15.88 106.92 15.775 106.65 15.685C106.39 15.595 106.14 15.525 105.9 15.475C105.66 15.425 105.435 15.4 105.225 15.4C104.945 15.4 104.73 15.44 104.58 15.52C104.43 15.59 104.355 15.7 104.355 15.85C104.355 15.96 104.395 16.065 104.475 16.165C104.565 16.255 104.73 16.355 104.97 16.465C105.22 16.575 105.58 16.73 106.05 16.93C106.52 17.12 106.92 17.32 107.25 17.53C107.58 17.74 107.83 18 108 18.31C108.17 18.62 108.255 19.02 108.255 19.51ZM115.843 19.51C115.843 20.05 115.718 20.52 115.468 20.92C115.228 21.31 114.848 21.615 114.328 21.835C113.808 22.045 113.148 22.15 112.348 22.15C111.768 22.15 111.258 22.115 110.818 22.045C110.388 21.975 109.953 21.85 109.513 21.67V19.63C109.993 19.84 110.493 20.005 111.013 20.125C111.543 20.245 111.983 20.305 112.333 20.305C112.713 20.305 112.988 20.255 113.158 20.155C113.328 20.055 113.413 19.915 113.413 19.735C113.413 19.605 113.368 19.49 113.278 19.39C113.198 19.29 113.028 19.175 112.768 19.045C112.518 18.915 112.143 18.75 111.643 18.55C111.153 18.34 110.748 18.125 110.428 17.905C110.118 17.685 109.883 17.42 109.723 17.11C109.573 16.8 109.498 16.42 109.498 15.97C109.498 15.19 109.798 14.605 110.398 14.215C111.008 13.815 111.813 13.615 112.813 13.615C113.343 13.615 113.843 13.67 114.313 13.78C114.783 13.89 115.268 14.06 115.768 14.29L115.048 16C114.778 15.88 114.508 15.775 114.238 15.685C113.978 15.595 113.728 15.525 113.488 15.475C113.248 15.425 113.023 15.4 112.813 15.4C112.533 15.4 112.318 15.44 112.168 15.52C112.018 15.59 111.943 15.7 111.943 15.85C111.943 15.96 111.983 16.065 112.063 16.165C112.153 16.255 112.318 16.355 112.558 16.465C112.808 16.575 113.168 16.73 113.638 16.93C114.108 17.12 114.508 17.32 114.838 17.53C115.168 17.74 115.418 18 115.588 18.31C115.758 18.62 115.843 19.02 115.843 19.51ZM121.061 13.615C121.841 13.615 122.511 13.76 123.071 14.05C123.641 14.33 124.076 14.75 124.376 15.31C124.686 15.86 124.841 16.545 124.841 17.365V18.535H119.636C119.656 19.075 119.831 19.505 120.161 19.825C120.491 20.145 120.961 20.305 121.571 20.305C122.101 20.305 122.581 20.255 123.011 20.155C123.441 20.055 123.886 19.895 124.346 19.675V21.55C123.946 21.76 123.516 21.91 123.056 22C122.596 22.1 122.031 22.15 121.361 22.15C120.531 22.15 119.791 22 119.141 21.7C118.501 21.4 117.996 20.94 117.626 20.32C117.266 19.69 117.086 18.895 117.086 17.935C117.086 16.955 117.251 16.15 117.581 15.52C117.911 14.88 118.376 14.405 118.976 14.095C119.576 13.775 120.271 13.615 121.061 13.615ZM121.106 15.37C120.716 15.37 120.391 15.495 120.131 15.745C119.881 15.985 119.731 16.37 119.681 16.9H122.516C122.516 16.61 122.461 16.35 122.351 16.12C122.251 15.89 122.096 15.71 121.886 15.58C121.676 15.44 121.416 15.37 121.106 15.37ZM130.279 20.14C130.539 20.14 130.779 20.115 130.999 20.065C131.219 20.015 131.444 19.95 131.674 19.87V21.73C131.404 21.85 131.094 21.95 130.744 22.03C130.394 22.11 129.979 22.15 129.499 22.15C128.989 22.15 128.534 22.07 128.134 21.91C127.744 21.74 127.434 21.455 127.204 21.055C126.984 20.645 126.874 20.08 126.874 19.36V15.655H125.824V14.605L127.084 13.795L127.774 12.055H129.394V13.765H131.584V15.655H129.394V19.27C129.394 19.56 129.474 19.78 129.634 19.93C129.794 20.07 130.009 20.14 130.279 20.14ZM139.164 19.51C139.164 20.05 139.039 20.52 138.789 20.92C138.549 21.31 138.169 21.615 137.649 21.835C137.129 22.045 136.469 22.15 135.669 22.15C135.089 22.15 134.579 22.115 134.139 22.045C133.709 21.975 133.274 21.85 132.834 21.67V19.63C133.314 19.84 133.814 20.005 134.334 20.125C134.864 20.245 135.304 20.305 135.654 20.305C136.034 20.305 136.309 20.255 136.479 20.155C136.649 20.055 136.734 19.915 136.734 19.735C136.734 19.605 136.689 19.49 136.599 19.39C136.519 19.29 136.349 19.175 136.089 19.045C135.839 18.915 135.464 18.75 134.964 18.55C134.474 18.34 134.069 18.125 133.749 17.905C133.439 17.685 133.204 17.42 133.044 17.11C132.894 16.8 132.819 16.42 132.819 15.97C132.819 15.19 133.119 14.605 133.719 14.215C134.329 13.815 135.134 13.615 136.134 13.615C136.664 13.615 137.164 13.67 137.634 13.78C138.104 13.89 138.589 14.06 139.089 14.29L138.369 16C138.099 15.88 137.829 15.775 137.559 15.685C137.299 15.595 137.049 15.525 136.809 15.475C136.569 15.425 136.344 15.4 136.134 15.4C135.854 15.4 135.639 15.44 135.489 15.52C135.339 15.59 135.264 15.7 135.264 15.85C135.264 15.96 135.304 16.065 135.384 16.165C135.474 16.255 135.639 16.355 135.879 16.465C136.129 16.575 136.489 16.73 136.959 16.93C137.429 17.12 137.829 17.32 138.159 17.53C138.489 17.74 138.739 18 138.909 18.31C139.079 18.62 139.164 19.02 139.164 19.51Z" fill="white"/>
</svg>
